HIERARCHY
ROOT Hips
{
	OFFSET 0.000000 8.830580 0.000000
	CHANNELS 6 Xposition Yposition Zposition Zrotation Yrotation Xrotation 
	JOINT Spine
	{
		OFFSET 0.000000 0.010000 0.000000
		CHANNELS 3 Zrotation Yrotation Xrotation
		JOINT Spine1
		{
			OFFSET 0.000000 2.459130 0.000000
			CHANNELS 3 Zrotation Yrotation Xrotation
			JOINT Neck
			{
				OFFSET 0.000000 2.484630 0.000000
				CHANNELS 3 Zrotation Yrotation Xrotation
				JOINT Head_virtual
				{
					OFFSET 0.000000 0.000000 0.000000
					CHANNELS 3 Zrotation Yrotation Xrotation
					JOINT Head
					{
						OFFSET 0.000000 0.927525 0.000000
						CHANNELS 3 Zrotation Yrotation Xrotation
						End Site
						{
							OFFSET 0.000000 0.000000 0.000000
						}
					}
				}
				JOINT LeftUpArm_virtual
				{
					OFFSET 0.000000 0.000000 0.000000
					CHANNELS 3 Zrotation Yrotation Xrotation
					JOINT LeftUpArm
					{
						OFFSET 1.248820 0.000000 0.000000
						CHANNELS 3 Zrotation Yrotation Xrotation
						JOINT LeftForeArm
						{
							OFFSET 2.597580 0.000000 0.000000
							CHANNELS 3 Zrotation Yrotation Xrotation
							JOINT LeftHand
							{
								OFFSET 2.455420 0.000000 0.000000
								CHANNELS 3 Zrotation Yrotation Xrotation
								End Site
								{
									OFFSET 0.000000 0.000000 0.000000
								}
							}
						}
					}
				}
				JOINT RightUpArm_virtual
				{
					OFFSET -0.000000 -0.000000 -0.000000
					CHANNELS 3 Zrotation Yrotation Xrotation
					JOINT RightUpArm
					{
						OFFSET -1.248820 -0.000000 -0.000000
						CHANNELS 3 Zrotation Yrotation Xrotation
						JOINT RightForeArm
						{
							OFFSET -2.597580 -0.000000 -0.000000
							CHANNELS 3 Zrotation Yrotation Xrotation
							JOINT RightHand
							{
								OFFSET -2.455420 -0.000000 -0.000000
								CHANNELS 3 Zrotation Yrotation Xrotation
								End Site
								{
									OFFSET 0.000000 0.000000 0.000000
								}
							}
						}
					}
				}
			}
		}
	}
	JOINT LeftUpLeg
	{
		OFFSET 1.271939 0.000000 0.000000
		CHANNELS 3 Zrotation Yrotation Xrotation
		JOINT LeftLowLeg
		{
			OFFSET 0.000000 -4.342910 0.000000
			CHANNELS 3 Zrotation Yrotation Xrotation
			JOINT LeftFoot
			{
				OFFSET 0.000000 -4.487670 0.000000
				CHANNELS 3 Zrotation Yrotation Xrotation
				JOINT LeftToeBase
				{
					OFFSET 0.000000 0.000000 1.515070
					CHANNELS 3 Zrotation Yrotation Xrotation
					End Site
					{
						OFFSET 0.000000 0.000000 0.000000
					}
				}
			}
		}
	}
	JOINT RightUpLeg
	{
		OFFSET -1.271939 0.000000 0.000000
		CHANNELS 3 Zrotation Yrotation Xrotation
		JOINT RightLowLeg
		{
			OFFSET 0.000000 -4.342910 0.000000
			CHANNELS 3 Zrotation Yrotation Xrotation
			JOINT RightFoot
			{
				OFFSET 0.000000 -4.487670 0.000000
				CHANNELS 3 Zrotation Yrotation Xrotation
				JOINT RightToeBase
				{
					OFFSET 0.000000 0.000000 1.515070
					CHANNELS 3 Zrotation Yrotation Xrotation
					End Site
					{
						OFFSET 0.000000 0.000000 0.000000
					}
				}
			}
		}
	}
}
MOTION
Frames: 11
Frame Time: 0.041667
-15.499064 8.891764 37.088780 179.078907 3.253574 178.594753 3.059856 1.903041 -16.333161 -5.901175 2.367713 16.489779 0.000000 0.000000 0.000000 9.132134 2.512139 13.240014 -8.335175 -6.057496 -83.931587 -25.604401 4.433260 6.147003 -48.480099 -6.444830 12.350900 0.000000 -18.141199 0.000000 2.180960 16.128201 -7.023300 30.519501 -6.957620 0.821014 48.878300 0.957752 12.798800 0.000000 22.764700 0.000000 2.783450 -7.468250 -14.911000 -2.537298 -7.905221 4.194248 0.000000 0.000000 14.040000 -11.878232 12.667740 -7.206003 0.000000 0.000000 -21.614380 2.840770 15.261682 3.003919 0.000000 0.000000 18.961901 30.918697 -8.110261 -15.616414 0.000000 0.000000 -18.138750 
-15.501924 8.890792 37.098540 179.079378 3.211469 178.442958 3.131015 1.754429 -15.879540 -5.924085 2.156205 16.548253 0.000000 0.000000 0.000000 8.877662 2.753522 11.637588 -8.379809 -5.924555 -84.357830 -25.604601 4.214930 5.786011 -48.378502 -6.361040 12.631800 0.000000 -17.484600 0.000000 2.858640 16.006100 -6.708830 30.721201 -6.724310 0.649994 48.603901 1.238910 12.991300 0.000000 22.330999 0.000000 3.273370 -8.386260 -14.374200 -2.569286 -7.981119 4.221442 0.000000 0.000000 14.157800 -11.890752 12.670038 -7.274871 0.000000 0.000000 -21.516450 2.874692 15.322996 3.071362 0.000000 0.000000 19.037701 30.990463 -8.160059 -15.691701 0.000000 0.000000 -18.136500 
-15.505435 8.890255 37.108237 179.075969 3.260527 178.575502 3.192244 1.655715 -15.703225 -5.914015 2.025132 16.601169 0.000000 0.000000 0.000000 8.728490 2.849732 9.974577 -8.377633 -5.800050 -84.801111 -25.601200 3.908840 5.967010 -48.237900 -6.564620 12.572200 0.000000 -16.975500 0.000000 3.404630 15.942400 -6.581690 30.732901 -6.451270 0.947998 48.489300 1.706270 12.940000 0.000000 21.757500 0.000000 3.410510 -8.159360 -14.451900 -2.577111 -7.968165 3.973827 0.000000 0.000000 14.262400 -12.118804 12.608046 -7.388831 0.000000 0.000000 -21.395460 2.785167 15.316850 2.816281 0.000000 0.000000 19.120100 31.006653 -8.076260 -15.673587 0.000000 0.000000 -18.144730 
-15.508684 8.889866 37.118495 179.071334 3.325153 178.766631 3.208341 1.533225 -15.564413 -5.813166 1.930216 16.618803 0.000000 0.000000 0.000000 8.474197 3.059886 8.389793 -8.214731 -5.723386 -85.328525 -25.621401 3.644980 6.222992 -48.067200 -6.784630 12.739900 0.000000 -16.667700 0.000000 3.963270 15.916900 -5.327190 30.764500 -6.141550 1.072998 48.276199 1.923770 12.904300 0.000000 21.371099 0.000000 3.619450 -8.316640 -14.718000 -2.586169 -8.020386 3.670875 0.000000 0.000000 14.370300 -12.125619 12.722921 -7.426332 0.000000 0.000000 -21.368190 2.676221 15.295121 2.481134 0.000000 0.000000 19.224001 31.008848 -7.988567 -15.644346 0.000000 0.000000 -18.146760 
-15.511324 8.889778 37.128472 179.081161 3.334590 178.957889 3.161863 1.329789 -15.465669 -5.593006 1.855647 16.678401 0.000000 0.000000 0.000000 8.250507 3.228650 6.825621 -8.067443 -5.635870 -85.818107 -25.645599 3.425390 6.536011 -47.972599 -7.111490 12.675800 0.000000 -16.404900 0.000000 4.276500 15.952900 -4.231810 30.708200 -5.957290 1.321991 48.088699 2.347780 12.972100 0.000000 21.005400 0.000000 3.679090 -8.479970 -14.656800 -2.571445 -8.115326 3.362005 0.000000 0.000000 14.484000 -12.130286 12.821362 -7.468743 0.000000 0.000000 -21.340610 2.592006 15.222911 2.167125 0.000000 0.000000 19.305500 30.993185 -7.939322 -15.605838 0.000000 0.000000 -18.157400 
-15.514905 8.889663 37.137731 179.075630 3.384800 179.121838 3.113074 1.186903 -15.338772 -5.407514 1.817946 16.709957 0.000000 0.000000 0.000000 8.148676 3.336541 5.401218 -7.953463 -5.509757 -86.290547 -25.660999 3.244490 6.649994 -47.913300 -7.300410 12.714700 0.000000 -16.235001 0.000000 4.653440 16.122101 -3.088900 30.678699 -5.818460 1.453003 47.872898 2.646240 13.121000 0.000000 20.642500 0.000000 3.794220 -8.501650 -15.026100 -2.584073 -8.187973 3.124815 0.000000 0.000000 14.524700 -12.150389 12.920380 -7.497164 0.000000 0.000000 -21.303890 2.486865 15.145762 1.898706 0.000000 0.000000 19.342501 31.000902 -7.838224 -15.557782 0.000000 0.000000 -18.160680 
-15.518312 8.889677 37.147510 179.095951 3.480382 179.260506 3.088486 1.117298 -15.161452 -5.216636 1.814518 16.674505 0.000000 0.000000 0.000000 8.114289 3.378128 4.106534 -7.815613 -5.394911 -86.708306 -25.678301 3.064930 6.812012 -47.852901 -7.520540 12.760700 0.000000 -16.110399 0.000000 4.809040 16.205500 -2.433870 30.705601 -5.656180 1.605011 47.580799 2.785880 13.241300 0.000000 20.594000 0.000000 3.733630 -8.995420 -14.765600 -2.560874 -8.171639 2.929863 0.000000 0.000000 14.539000 -12.218945 12.944257 -7.543259 0.000000 0.000000 -21.244480 2.419463 15.162269 1.640482 0.000000 0.000000 19.407000 30.967213 -7.798542 -15.500510 0.000000 0.000000 -18.148100 
-15.522850 8.890017 37.153276 179.096966 3.484210 179.393804 3.037256 1.009296 -15.073094 -5.038559 1.801102 16.660571 0.000000 0.000000 0.000000 8.154326 3.395355 3.018798 -7.704853 -5.257863 -87.039917 -25.671101 2.904420 6.919006 -47.858700 -7.643930 12.772200 0.000000 -16.115200 0.000000 4.812130 16.219101 -2.823050 30.644400 -5.522930 1.684998 47.397999 2.730600 13.199500 0.000000 20.545500 0.000000 3.506310 -8.621660 -13.706400 -2.567976 -8.242357 2.779351 0.000000 0.000000 14.500600 -12.209477 12.990256 -7.527514 0.000000 0.000000 -21.244720 2.340661 15.115450 1.485630 0.000000 0.000000 19.349100 30.986860 -7.758213 -15.462018 0.000000 0.000000 -18.152440 
-15.527175 8.890790 37.161791 179.096666 3.656674 179.557884 3.013936 1.048728 -14.965666 -4.903601 1.871846 16.564393 0.000000 0.000000 0.000000 8.267034 3.392411 2.203990 -7.496019 -5.149816 -87.409480 -25.681200 2.751770 7.106995 -47.783501 -7.786280 12.818100 0.000000 -16.304001 0.000000 4.907150 16.191000 -2.329440 30.648800 -5.386890 1.846008 47.181198 2.701290 13.018100 0.000000 20.597700 0.000000 3.406770 -8.869950 -13.564600 -2.552182 -7.999037 2.632784 0.000000 0.000000 14.369700 -12.171738 12.948953 -7.455837 0.000000 0.000000 -21.270930 2.256138 15.335450 1.208320 0.000000 0.000000 19.408501 30.998307 -7.786555 -15.433799 0.000000 0.000000 -18.174500 
-15.533369 8.890755 37.174324 179.133104 3.711855 179.819057 3.053180 1.075886 -14.841676 -4.865523 1.834295 16.299385 0.000000 0.000000 0.000000 8.512494 3.296924 1.516180 -7.483831 -4.991804 -87.604781 -25.748699 2.684930 7.149994 -47.668800 -7.810330 12.933300 0.000000 -16.626499 0.000000 4.996400 16.102501 -2.812010 30.653299 -5.294340 2.031006 46.995399 2.619410 12.877200 0.000000 20.768200 0.000000 3.029390 -8.568650 -13.221800 -2.511532 -8.010322 2.258760 0.000000 0.000000 14.452900 -12.205349 12.977139 -7.504118 0.000000 0.000000 -21.236700 2.124182 15.169736 0.842318 0.000000 0.000000 19.382601 31.035322 -7.575260 -15.296419 0.000000 0.000000 -18.172930 
-15.538321 8.891075 37.181738 179.126681 3.825397 -179.912319 3.034472 1.132308 -14.838364 -4.797469 1.887446 16.090267 0.000000 0.000000 0.000000 8.632233 3.360544 1.141841 -7.325795 -4.881515 -87.914364 -25.815399 2.655860 7.234009 -47.529400 -7.830780 13.196500 0.000000 -17.100401 0.000000 5.210560 15.993800 -2.595120 30.627600 -5.401290 2.230988 46.876400 2.718740 12.667600 0.000000 20.813400 0.000000 2.929940 -8.414800 -12.801400 -2.507983 -7.984655 1.991777 0.000000 0.000000 14.378500 -12.136024 13.050165 -7.459718 0.000000 0.000000 -21.236600 1.983270 15.186165 0.492552 0.000000 0.000000 19.380699 31.045635 -7.487385 -15.237127 0.000000 0.000000 -18.154180 
